<svg xmlns="http://www.w3.org/2000/svg" width="361.29" height="360.464" viewBox="0 0 361.29 360.464">
  <g id="Grupo_15585" data-name="Grupo 15585" transform="translate(-109.941 -110.833)">
    <ellipse id="Elipse_508" data-name="Elipse 508" cx="10.496" cy="6.997" rx="10.496" ry="6.997" transform="translate(319.992 110.833)" fill="#9b9b9b"/>
    <circle id="Elipse_509" data-name="Elipse 509" cx="4.784" cy="4.784" r="4.784" transform="translate(318.422 285.94)" fill="#848484"/>
    <path id="Trazado_26763" data-name="Trazado 26763" d="M578.426,489.975a2.9,2.9,0,1,1-2.9-2.9A2.9,2.9,0,0,1,578.426,489.975Z" transform="translate(-248.406 -201.996)" fill="#848484"/>
    <path id="Trazado_26764" data-name="Trazado 26764" d="M567.249,476.044c0,.921-1.038,1.667-2.319,1.667s-2.32-.746-2.32-1.667,1.038-1.667,2.32-1.667S567.249,475.124,567.249,476.044Z" transform="translate(-243.028 -195.179)" fill="#848484"/>
    <path id="Trazado_26765" data-name="Trazado 26765" d="M572.374,509.179a1.627,1.627,0,1,1-1.595-1.3A1.472,1.472,0,0,1,572.374,509.179Z" transform="translate(-246.557 -213.163)" fill="#848484"/>
    <path id="Trazado_26766" data-name="Trazado 26766" d="M588.982,518.889a3.1,3.1,0,1,1-3.1-2.954A3.028,3.028,0,0,1,588.982,518.889Z" transform="translate(-253.861 -217.49)" fill="#848484"/>
    <path id="Trazado_26767" data-name="Trazado 26767" d="M594.156,519.666a2.7,2.7,0,1,1-2.664-2.284A2.5,2.5,0,0,1,594.156,519.666Z" transform="translate(-257.104 -218.267)" fill="#848484"/>
    <path id="Trazado_26768" data-name="Trazado 26768" d="M600.1,512.206a1.521,1.521,0,1,1-1.468-1.124A1.331,1.331,0,0,1,600.1,512.206Z" transform="translate(-261.579 -214.885)" fill="#848484"/>
    <path id="Trazado_26769" data-name="Trazado 26769" d="M589.172,507.372c0,.761-.852,1.377-1.9,1.377s-1.9-.616-1.9-1.377.852-1.377,1.9-1.377S589.172,506.612,589.172,507.372Z" transform="translate(-255.245 -212.154)" fill="#848484"/>
    <ellipse id="Elipse_510" data-name="Elipse 510" cx="1.549" cy="1.956" rx="1.549" ry="1.956" transform="translate(331.724 302.903)" fill="#848484"/>
    <ellipse id="Elipse_511" data-name="Elipse 511" cx="173.396" cy="13.968" rx="173.396" ry="13.968" transform="translate(109.941 408.978)" fill="#4fc3f7"/>
    <ellipse id="Elipse_512" data-name="Elipse 512" cx="150.596" cy="18.394" rx="150.596" ry="18.394" transform="translate(150.825 434.508)" fill="#4fc3f7"/>
    <ellipse id="Elipse_513" data-name="Elipse 513" cx="108.468" cy="11.487" rx="108.468" ry="11.487" transform="translate(189.142 444.453)" fill="#29b6f6"/>
    <path id="Trazado_26770" data-name="Trazado 26770" d="M572.166,546.447h-5.8l.992-30.591h3.43Z" transform="translate(-245.045 -217.448)" fill="#9b9b9b"/>
    <path id="Trazado_26771" data-name="Trazado 26771" d="M591.239,562.882h-6.089l1.644-30.591h3.43Z" transform="translate(-255.129 -226.272)" fill="#9b9b9b"/>
    <rect id="Rectángulo_3394" data-name="Rectángulo 3394" width="4.28" height="18.567" transform="translate(254.99 266.513)" fill="#9b9b9b"/>
    <rect id="Rectángulo_3395" data-name="Rectángulo 3395" width="1.957" height="13.409" transform="translate(262.025 271.225)" fill="#9b9b9b"/>
    <ellipse id="Elipse_514" data-name="Elipse 514" cx="6.323" cy="6.457" rx="6.323" ry="6.457" transform="translate(287.72 177.598)" fill="#9b9b9b"/>
    <path id="Trazado_26772" data-name="Trazado 26772" d="M509,420.9H484.347L485,397.42l.152-5.454,1.775-63.627.361-12.922.348-12.491.213-7.664.439-15.667h12.813l.874,15.667.431,7.664.7,12.491.722,12.922,3.54,63.4.318,5.68Z" transform="translate(-201.011 -90.605)" fill="#e0e0e0"/>
    <path id="Trazado_26773" data-name="Trazado 26773" d="M508.448,526.533H485.766l.152-5.454,21.991-1,.222.77Z" transform="translate(-201.772 -219.717)" fill="#bdbdbd"/>
    <circle id="Elipse_515" data-name="Elipse 515" cx="5.176" cy="5.176" r="5.176" transform="translate(234.473 241.244)" fill="#9b9b9b"/>
    <path id="Trazado_26774" data-name="Trazado 26774" d="M524.548,569.356h35.983v57.169H514.762Z" transform="translate(-217.339 -246.171)" fill="#bdbdbd"/>
    <ellipse id="Elipse_516" data-name="Elipse 516" cx="175.571" cy="12.976" rx="175.571" ry="12.976" transform="translate(120.089 396.995)" fill="#6d4c41"/>
    <circle id="Elipse_517" data-name="Elipse 517" cx="5.256" cy="5.256" r="5.256" transform="translate(181.739 222.839) rotate(-76.718)" fill="#9b9b9b"/>
    <ellipse id="Elipse_518" data-name="Elipse 518" cx="7.825" cy="5.248" rx="7.825" ry="5.248" transform="translate(173.788 201.275)" fill="#9b9b9b"/>
    <ellipse id="Elipse_519" data-name="Elipse 519" cx="13.027" cy="12.695" rx="13.027" ry="12.695" transform="translate(179.665 181.133)" fill="#9b9b9b"/>
    <ellipse id="Elipse_520" data-name="Elipse 520" cx="13.027" cy="8.977" rx="13.027" ry="8.977" transform="translate(179.665 172.156)" fill="#9b9b9b"/>
    <ellipse id="Elipse_521" data-name="Elipse 521" cx="18.951" cy="16.697" rx="18.951" ry="16.697" transform="translate(184.82 150.672)" fill="#9b9b9b"/>
    <ellipse id="Elipse_522" data-name="Elipse 522" cx="21.575" cy="12.027" rx="21.575" ry="12.027" transform="translate(190.068 174.804)" fill="#9b9b9b"/>
    <ellipse id="Elipse_523" data-name="Elipse 523" cx="6.706" cy="4.787" rx="6.706" ry="4.787" transform="translate(228.553 162.583)" fill="#9b9b9b"/>
    <ellipse id="Elipse_524" data-name="Elipse 524" cx="10.496" cy="6.997" rx="10.496" ry="6.997" transform="translate(207.561 132.092)" fill="#9b9b9b"/>
    <ellipse id="Elipse_525" data-name="Elipse 525" cx="13.027" cy="12.695" rx="13.027" ry="12.695" transform="translate(292.096 159.874)" fill="#9b9b9b"/>
    <ellipse id="Elipse_526" data-name="Elipse 526" cx="20.072" cy="13.833" rx="20.072" ry="13.833" transform="translate(278.005 150.897)" fill="#9b9b9b"/>
    <ellipse id="Elipse_527" data-name="Elipse 527" cx="22.508" cy="19.832" rx="22.508" ry="19.832" transform="translate(290.136 129.413)" fill="#9b9b9b"/>
    <ellipse id="Elipse_528" data-name="Elipse 528" cx="21.575" cy="12.027" rx="21.575" ry="12.027" transform="translate(302.499 153.545)" fill="#9b9b9b"/>
    <ellipse id="Elipse_529" data-name="Elipse 529" cx="13.949" cy="7.776" rx="13.949" ry="7.776" transform="translate(271.072 167.029)" fill="#9b9b9b"/>
    <ellipse id="Elipse_530" data-name="Elipse 530" cx="6.706" cy="4.787" rx="6.706" ry="4.787" transform="translate(340.984 141.324)" fill="#9b9b9b"/>
    <path id="Trazado_26775" data-name="Trazado 26775" d="M279.364,533.834H246.743l3.419-122.51.478-17.106.461-16.528.283-10.147.579-20.734h16.963l1.157,20.734.565,10.147.922,16.528.957,17.106Z" transform="translate(-73.446 -126.691)" fill="#e0e0e0"/>
    <path id="Trazado_26776" data-name="Trazado 26776" d="M275.7,401.726H256.154l.283-10.147h18.7Z" transform="translate(-78.498 -150.726)" fill="#ef5350"/>
    <path id="Trazado_26777" data-name="Trazado 26777" d="M276.49,466.283H254.125l.478-17.106h20.929Z" transform="translate(-77.409 -181.649)" fill="#ef5350"/>
    <path id="Trazado_26778" data-name="Trazado 26778" d="M391.608,548.089H366.961l2.583-92.563.362-12.925.348-12.488.214-7.667.437-15.665h12.816l.874,15.665.427,7.667.7,12.488.723,12.925Z" transform="translate(-137.988 -158.888)" fill="#e0e0e0"/>
    <path id="Trazado_26779" data-name="Trazado 26779" d="M388.839,448.273H374.071l.214-7.667h14.127Z" transform="translate(-141.806 -177.048)" fill="#ef5350"/>
    <path id="Trazado_26780" data-name="Trazado 26780" d="M329.542,608.623V502.643l65.025-16.529v122.51Z" transform="translate(-117.899 -201.48)" fill="#bdbdbd"/>
    <path id="Trazado_26781" data-name="Trazado 26781" d="M380.534,583.578l8.9-114.245,32.513-8.265v122.51Z" transform="translate(-145.275 -188.034)" fill="#bdbdbd"/>
    <ellipse id="Elipse_531" data-name="Elipse 531" cx="11.313" cy="7.587" rx="11.313" ry="7.587" transform="translate(216.517 224.42)" fill="#9b9b9b"/>
    <ellipse id="Elipse_532" data-name="Elipse 532" cx="17.765" cy="13.638" rx="17.765" ry="13.638" transform="translate(216.517 208.158)" fill="#9b9b9b"/>
    <ellipse id="Elipse_533" data-name="Elipse 533" cx="10.325" cy="7.115" rx="10.325" ry="7.115" transform="translate(231.397 208.195)" fill="#9b9b9b"/>
    <ellipse id="Elipse_534" data-name="Elipse 534" cx="15.021" cy="13.235" rx="15.021" ry="13.235" transform="translate(235.482 191.167)" fill="#9b9b9b"/>
    <ellipse id="Elipse_535" data-name="Elipse 535" cx="17.1" cy="9.532" rx="17.1" ry="9.532" transform="translate(239.642 215.84)" fill="#9b9b9b"/>
    <ellipse id="Elipse_536" data-name="Elipse 536" cx="5.315" cy="3.794" rx="5.315" ry="3.794" transform="translate(267.375 201.275)" fill="#9b9b9b"/>
    <rect id="Rectángulo_3396" data-name="Rectángulo 3396" width="23.423" height="6.163" transform="translate(217.046 303.735)" fill="#9b9b9b"/>
    <rect id="Rectángulo_3397" data-name="Rectángulo 3397" width="23.423" height="6.163" transform="translate(217.046 314.832)" fill="#9b9b9b"/>
    <path id="Trazado_26782" data-name="Trazado 26782" d="M411.711,388.615c0,1.815-2.207,3.286-4.929,3.286s-4.929-1.471-4.929-3.286,2.207-3.286,4.929-3.286S411.711,386.8,411.711,388.615Z" transform="translate(-156.721 -147.371)" fill="#9b9b9b"/>
    <g id="Grupo_15578" data-name="Grupo 15578" transform="translate(246.149 380.395)">
      <path id="Trazado_26783" data-name="Trazado 26783" d="M412.749,716.59h-8.7v-4.241a19.485,19.485,0,0,1,19.464-19.463h15.223v8.7H423.514a10.777,10.777,0,0,0-10.765,10.765Z" transform="translate(-404.05 -692.886)" fill="#e0e0e0"/>
    </g>
    <g id="Grupo_15579" data-name="Grupo 15579" transform="translate(226.795 317.763)">
      <path id="Trazado_26784" data-name="Trazado 26784" d="M371.849,599.765h-9.591V591.5h9.591a1.574,1.574,0,0,0,1.438-.935l12-27.067a9.844,9.844,0,0,1,8.992-5.851h9.591v8.264h-9.591a1.574,1.574,0,0,0-1.438.936l-12,27.067A9.843,9.843,0,0,1,371.849,599.765Z" transform="translate(-362.258 -557.648)" fill="#e0e0e0"/>
    </g>
    <path id="Trazado_26785" data-name="Trazado 26785" d="M478.549,700.951l-5-1.149V688.664l5-1.414Z" transform="translate(-195.212 -309.466)" fill="#fff"/>
    <g id="Grupo_15580" data-name="Grupo 15580" transform="translate(226.795 344.124)">
      <path id="Trazado_26786" data-name="Trazado 26786" d="M371.849,656.685h-9.591v-8.264h9.591a1.574,1.574,0,0,0,1.438-.935l12-27.067a9.843,9.843,0,0,1,8.992-5.851h9.591v8.264h-9.591a1.573,1.573,0,0,0-1.438.936l-12,27.067A9.843,9.843,0,0,1,371.849,656.685Z" transform="translate(-362.258 -614.568)" fill="#e0e0e0"/>
    </g>
    <path id="Trazado_26787" data-name="Trazado 26787" d="M362.026,637.342l-5.872,1.015V621.9l5.872,1.233Z" transform="translate(-132.186 -274.381)" fill="#757575"/>
    <path id="Trazado_26788" data-name="Trazado 26788" d="M442.244,564.094l-3.914-1.015V550.9l3.914-2.175Z" transform="translate(-176.304 -235.095)" fill="#757575"/>
    <path id="Trazado_26789" data-name="Trazado 26789" d="M362.026,694.261l-5.872,1.015V678.82l5.872,1.233Z" transform="translate(-132.186 -304.94)" fill="#757575"/>
    <path id="Trazado_26790" data-name="Trazado 26790" d="M442.244,621.014,438.329,620V607.821l3.914-2.175Z" transform="translate(-176.304 -265.654)" fill="#757575"/>
    <path id="Trazado_26791" data-name="Trazado 26791" d="M442.244,700.819l-3.914-1.015V687.625l3.914-2.175Z" transform="translate(-176.304 -308.5)" fill="#757575"/>
    <ellipse id="Elipse_537" data-name="Elipse 537" cx="88.728" cy="4.639" rx="88.728" ry="4.639" transform="translate(211.643 448.487)" fill="#6d4c41"/>
    <ellipse id="Elipse_538" data-name="Elipse 538" cx="56.375" cy="4.639" rx="56.375" ry="4.639" transform="translate(230.323 454.956)" fill="#6d4c41"/>
    <path id="Trazado_26792" data-name="Trazado 26792" d="M282.956,653.314V589.378c0-25.226,36.727-28.126,36.727,0v63.936Z" transform="translate(-92.888 -246.171)" fill="#eee"/>
    <rect id="Rectángulo_3398" data-name="Rectángulo 3398" width="12.396" height="14.319" transform="translate(265.939 441.617)" fill="#5d4037"/>
    <path id="Trazado_26793" data-name="Trazado 26793" d="M397.476,743.584l1.259-6.089h11.8l1.73,6.089Z" transform="translate(-154.371 -336.441)" fill="#757575"/>
    <rect id="Rectángulo_3399" data-name="Rectángulo 3399" width="48.133" height="102.791" transform="translate(265.939 304.352)" fill="#eee"/>
    <rect id="Rectángulo_3400" data-name="Rectángulo 3400" width="1.74" height="48.133" transform="translate(265.939 319.653) rotate(-90)" fill="#e0e0e0"/>
    <rect id="Rectángulo_3401" data-name="Rectángulo 3401" width="1.74" height="48.423" transform="translate(265.939 346.014) rotate(-90)" fill="#e0e0e0"/>
    <rect id="Rectángulo_3402" data-name="Rectángulo 3402" width="1.74" height="48.423" transform="translate(265.939 372.375) rotate(-90)" fill="#e0e0e0"/>
    <rect id="Rectángulo_3403" data-name="Rectángulo 3403" width="1.74" height="102.791" transform="translate(289.136 304.352)" fill="#e0e0e0"/>
    <rect id="Rectángulo_3404" data-name="Rectángulo 3404" width="1.74" height="48.423" transform="translate(265.939 398.736) rotate(-90)" fill="#e0e0e0"/>
    <g id="Grupo_15581" data-name="Grupo 15581" transform="translate(283.337 271.516)">
      <circle id="Elipse_539" data-name="Elipse 539" cx="17.833" cy="17.833" r="17.833" transform="translate(78.778 77.52) rotate(-80.783)" fill="#9b9b9b"/>
      <circle id="Elipse_540" data-name="Elipse 540" cx="14.916" cy="14.916" r="14.916" transform="translate(92.524 54.702) rotate(-22.5)" fill="#9b9b9b"/>
      <ellipse id="Elipse_541" data-name="Elipse 541" cx="11.27" cy="6.005" rx="11.27" ry="6.005" transform="translate(87.716 79.459)" fill="#9b9b9b"/>
      <ellipse id="Elipse_542" data-name="Elipse 542" cx="14.476" cy="9.471" rx="14.476" ry="9.471" transform="translate(92.031 66.133)" fill="#9b9b9b"/>
      <ellipse id="Elipse_543" data-name="Elipse 543" cx="7.756" cy="4.494" rx="7.756" ry="4.494" transform="translate(111.923 35.953)" fill="#9b9b9b"/>
      <ellipse id="Elipse_544" data-name="Elipse 544" cx="22.474" cy="14.424" rx="22.474" ry="14.424" transform="translate(104.961)" fill="#9b9b9b"/>
      <ellipse id="Elipse_545" data-name="Elipse 545" cx="9.714" cy="3.556" rx="9.714" ry="3.556" transform="translate(139.181 51.669)" fill="#9b9b9b"/>
      <ellipse id="Elipse_546" data-name="Elipse 546" cx="11.136" cy="6.005" rx="11.136" ry="6.005" transform="translate(49.638 78.228)" fill="#9b9b9b"/>
      <ellipse id="Elipse_547" data-name="Elipse 547" cx="15.935" cy="12.13" rx="15.935" ry="12.13" transform="translate(37.781 56.346)" fill="#9b9b9b"/>
      <ellipse id="Elipse_548" data-name="Elipse 548" cx="9.552" cy="7.28" rx="9.552" ry="7.28" transform="translate(57.847 65.693)" fill="#9b9b9b"/>
      <ellipse id="Elipse_549" data-name="Elipse 549" cx="13.628" cy="9.822" rx="13.628" ry="9.822" transform="translate(51.613 47.661)" fill="#9b9b9b"/>
      <ellipse id="Elipse_550" data-name="Elipse 550" cx="7.718" cy="4.132" rx="7.718" ry="4.132" transform="translate(69.233 37.984)" fill="#9b9b9b"/>
      <ellipse id="Elipse_551" data-name="Elipse 551" cx="4.409" cy="2.338" rx="4.409" ry="2.338" transform="translate(60.832 29.829)" fill="#9b9b9b"/>
      <ellipse id="Elipse_552" data-name="Elipse 552" cx="10.439" cy="6.997" rx="10.439" ry="6.997" transform="translate(14.208 78.467)" fill="#9b9b9b"/>
      <ellipse id="Elipse_553" data-name="Elipse 553" cx="12.323" cy="8.24" rx="12.323" ry="8.24" transform="translate(0 67.364)" fill="#9b9b9b"/>
      <ellipse id="Elipse_554" data-name="Elipse 554" cx="10.371" cy="10.28" rx="10.371" ry="10.28" transform="translate(11.415 60.046)" fill="#9b9b9b"/>
      <ellipse id="Elipse_555" data-name="Elipse 555" cx="7.662" cy="6.911" rx="7.662" ry="6.911" transform="translate(21.645 51.87)" fill="#9b9b9b"/>
      <ellipse id="Elipse_556" data-name="Elipse 556" cx="6.905" cy="3.811" rx="6.905" ry="3.811" transform="translate(7.835 44.047)" fill="#9b9b9b"/>
    </g>
    <path id="Trazado_26794" data-name="Trazado 26794" d="M528.38,645.231H501.024l-2.373,6.856H531Z" transform="translate(-208.69 -286.907)" fill="#a1887f"/>
    <path id="Trazado_26795" data-name="Trazado 26795" d="M610.375,645.231H583.019l-2.373,6.856H613Z" transform="translate(-252.711 -286.907)" fill="#a1887f"/>
    <path id="Trazado_26796" data-name="Trazado 26796" d="M692.37,645.231H665.014l-2.373,6.856h32.353Z" transform="translate(-296.732 -286.907)" fill="#a1887f"/>
    <path id="Trazado_26797" data-name="Trazado 26797" d="M608.463,701.062H480.591V657.2H606.675l.34,8.288.089,2.264Z" transform="translate(-198.994 -293.331)" fill="#6d4c41"/>
    <path id="Trazado_26798" data-name="Trazado 26798" d="M608.74,702H484.347V660.034H607l.331,7.929.087,2.166Z" transform="translate(-201.011 -294.854)" fill="#8d6e63"/>
    <path id="Trazado_26799" data-name="Trazado 26799" d="M607.418,679.321H484.347v-2.166H607.331Z" transform="translate(-201.011 -304.046)" fill="#6d4c41"/>
    <g id="Grupo_15582" data-name="Grupo 15582" transform="translate(283.251 364.965)">
      <path id="Trazado_26800" data-name="Trazado 26800" d="M559.784,667.929,548.905,660l-11.878,7.921-13.77-7.925-11.309,7.927-13.783-7.932-13.832,7.878-.171-.3,14-7.976,13.763,7.922,11.308-7.927,13.775,7.929,11.9-7.936,10.868,7.925,10.584-7.929,10.808,7.934,12.239-7.922,13.905,7.982-.172.3-13.722-7.876-12.263,7.936L570.367,660Z" transform="translate(-484.163 -659.569)" fill="#6d4c41"/>
    </g>
    <g id="Grupo_15583" data-name="Grupo 15583" transform="translate(283.255 364.969)">
      <path id="Trazado_26801" data-name="Trazado 26801" d="M570.669,667.93,558.777,660l-10.728,7.929L536.158,660l-11.3,7.926-13.014-7.933-12.9,7.926-14.771-7.976.164-.3,14.6,7.882,12.908-7.932,13,7.925,11.313-7.932,11.886,7.927,10.728-7.929,11.885,7.925,10.073-7.925,12.6,7.936,13.5-7.874.174.3-13.678,7.98L580.747,660Z" transform="translate(-484.17 -659.578)" fill="#6d4c41"/>
    </g>
    <rect id="Rectángulo_3405" data-name="Rectángulo 3405" width="1.522" height="32.951" transform="translate(309.651 374.192)" fill="#6d4c41"/>
    <rect id="Rectángulo_3406" data-name="Rectángulo 3406" width="1.522" height="32.951" transform="translate(344.111 374.192)" fill="#6d4c41"/>
    <path id="Trazado_26802" data-name="Trazado 26802" d="M484.347,708.373H607.962l-.063-1.522H484.347Z" transform="translate(-201.011 -319.989)" fill="#6d4c41"/>
    <rect id="Rectángulo_3407" data-name="Rectángulo 3407" width="1.522" height="32.951" transform="translate(378.571 374.192)" fill="#6d4c41"/>
    <path id="Trazado_26803" data-name="Trazado 26803" d="M521.128,759.709s19.007-25.3,33.047-7.924c22.119-17.228,35.8-19.86,35.252,0,0,0,22.822-12.209,30.963,0,0,0,70.535-9.12,52.383.73C644.682,767.76,564.2,766.066,521.128,759.709Z" transform="translate(-220.757 -336.637)" fill="#9e9d24"/>
    <path id="Trazado_26804" data-name="Trazado 26804" d="M127.465,756.421c-10.946-4.388,2.32-27.177,33.636-8.257,0,0,5.714-15,23.93,5.02,0,0,5.961-9.207,19.082,5.7C204.113,758.885,157.554,768.482,127.465,756.421Z" transform="translate(-7.376 -338.193)" fill="#9e9d24"/>
    <path id="Trazado_26805" data-name="Trazado 26805" d="M322.669,569.371c-.039.118-.062.188-.062.188s9.954,3.075,9.954,21.161v62.6h8.409V589.379C340.97,575.348,331.83,569.039,322.669,569.371Z" transform="translate(-114.176 -246.172)" fill="#e0e0e0"/>
    <rect id="Rectángulo_3408" data-name="Rectángulo 3408" width="38.579" height="2.681" transform="translate(189.142 343.207)" fill="#bdbdbd"/>
    <rect id="Rectángulo_3409" data-name="Rectángulo 3409" width="38.579" height="2.681" transform="translate(189.142 367.804)" fill="#bdbdbd"/>
    <circle id="Elipse_557" data-name="Elipse 557" cx="11.694" cy="11.694" r="11.694" transform="matrix(0.23, -0.973, 0.973, 0.23, 194.363, 400.941)" fill="#bdbdbd"/>
    <g id="Grupo_15584" data-name="Grupo 15584" transform="translate(201.69 385.505)">
      <path id="Trazado_26806" data-name="Trazado 26806" d="M377.809,762.892a6.742,6.742,0,0,1-6.741-6.742,10.088,10.088,0,0,0-10.076-10.076H331.609a23.586,23.586,0,0,1-23.56-23.56V710.662a6.742,6.742,0,0,1,13.483,0v11.852a10.087,10.087,0,0,0,10.076,10.076h29.382a23.586,23.586,0,0,1,23.559,23.56A6.742,6.742,0,0,1,377.809,762.892Z" transform="translate(-308.05 -703.921)" fill="#e0e0e0"/>
    </g>
    <path id="Trazado_26807" data-name="Trazado 26807" d="M457.141,814.925H438.329l1.764,7.539h15.431Z" transform="translate(-176.304 -378.012)" fill="#bdbdbd"/>
    <path id="Trazado_26808" data-name="Trazado 26808" d="M505.748,344.211H484.169l1.058-10.469h19.528Z" transform="translate(-200.915 -119.675)" fill="#e0e0e0"/>
    <path id="Trazado_26809" data-name="Trazado 26809" d="M490.622,356.347h15.791l.246,4.4-16.123-1.309Z" transform="translate(-204.333 -131.811)" fill="#bdbdbd"/>
    <ellipse id="Elipse_558" data-name="Elipse 558" cx="28.851" cy="1.916" rx="28.851" ry="1.916" transform="translate(275.811 457.679)" fill="#5d4037"/>
    <ellipse id="Elipse_559" data-name="Elipse 559" cx="30.301" cy="3.387" rx="30.301" ry="3.387" transform="translate(247.889 453.184)" fill="#5d4037"/>
    <path id="Trazado_26810" data-name="Trazado 26810" d="M486.2,846.058c-.619.7-1.381,1.028-1.7.742s-.078-1.08.541-1.775,1.38-1.028,1.7-.743S486.816,845.362,486.2,846.058Z" transform="translate(-201.015 -393.718)" fill="#8d6e63"/>
    <path id="Trazado_26811" data-name="Trazado 26811" d="M437.635,850.4s-2.32-4.059,2.175-1.3c0,0,.435-3.222,4.35-.959,0,0,9.279-5.035,6.089-.806,0,0,9.786-4.39,6.2.689,0,0,6.416.64,2.5,2.38Z" transform="translate(-175.61 -394.464)" fill="#8d6e63"/>
    <path id="Trazado_26812" data-name="Trazado 26812" d="M438.371,845.5c.493.554,1.1.819,1.355.592s.062-.86-.431-1.415-1.1-.819-1.356-.592S437.877,844.946,438.371,845.5Z" transform="translate(-176.035 -393.623)" fill="#8d6e63"/>
  </g>
</svg>
